<?xml version="1.0" encoding="utf-8"?>
<!-- Generator: Adobe Illustrator 25.2.3, SVG Export Plug-In . SVG Version: 6.00 Build 0)  -->
<svg version="1.1" id="Capa_1" xmlns="http://www.w3.org/2000/svg" xmlns:xlink="http://www.w3.org/1999/xlink" x="0px" y="0px"
	 viewBox="0 0 297 297" style="enable-background:new 0 0 297 297;" xml:space="preserve">
<g>
	<g>
		<path d="M295.3,108.4c-1.5-1.8-3.6-2.8-5.9-2.8h-28.9c-7.1-18.8-16.4-37.2-27-44.2c-36.5-24-133.5-24-170,0
			c-10.6,7-19.8,25.4-27,44.2H7.6c-2.3,0-4.5,1-5.9,2.8c-1.4,1.8-2,4.1-1.6,6.3l4.3,20.7c0.7,3.5,3.8,6.1,7.4,6.1h8.6
			c-8.3,9.5-12.3,21.5-12.3,33.6C8.1,190,13.7,203.4,24,212.9c0.1,0.1,0.2,0.2,0.3,0.3v29c0,6.3,5.1,11.4,11.4,11.4h26.7
			c6.3,0,11.4-5.1,11.4-11.4v-11.7h149.4v11.7c0,6.3,5.1,11.4,11.4,11.4h26.7c6.3,0,11.4-5.1,11.4-11.4v-28.5
			c10.9-10,16.2-23.8,16.2-37.6c0-12.4-4.1-24.9-12.9-34.6h9.1c3.6,0,6.7-2.5,7.4-6.1l4.3-20.7C297.3,112.5,296.7,110.2,295.3,108.4
			z M76,80.5c29.1-19.2,115.8-19.2,144.9,0c5.7,3.7,12.9,18.7,19.6,37.1H56.4C63.1,99.2,70.4,84.2,76,80.5z M41.9,178
			c0-12.4,10.1-22.4,22.4-22.4c12.4,0,22.4,10,22.4,22.4s-10,22.4-22.4,22.4C52,200.4,41.9,190.4,41.9,178z M232.9,200.4
			c-12.4,0-22.4-10-22.4-22.4s10.1-22.4,22.4-22.4c12.4,0,22.4,10,22.4,22.4S245.3,200.4,232.9,200.4z"/>
	</g>
</g>
</svg>
